<?xml version="1.0" encoding="utf-8"?>
<!-- Generator: Adobe Illustrator 26.5.1, SVG Export Plug-In . SVG Version: 6.00 Build 0)  -->
<svg version="1.1" id="Layer_1" xmlns="http://www.w3.org/2000/svg" xmlns:xlink="http://www.w3.org/1999/xlink" x="0px" y="0px"
	 viewBox="0 0 896 375.5506" style="enable-background:new 0 0 896 375.5506;" xml:space="preserve">
<path style="fill:#3A2315;stroke:#564033;stroke-width:7;stroke-miterlimit:10;" d="M95.7033,291.222l5.2183-20.946
	c2.746-11.0222,9.8221-20.4627,19.6197-26.2104c17.4962-10.2641,45.99-25.9508,70.9348-55.2538
	c1.9079-2.2413,3.5766-4.6817,4.9792-7.2694l23.5493-43.4468c6.8389-12.6172,19.6198-20.8732,33.9293-21.9702
	c11.6568-0.8937,25.2679-1.2972,36.3633-0.8866c11.3952,0.4217,22.1355,5.412,29.7834,13.8699l29.7301,32.8789
	c3.5458,3.9214,7.797,7.1415,12.5322,9.4927l24.1317,11.9822c0.516,0.2562,1.0352,0.5012,1.557,0.7349
	c21.6841,9.7099,47.0872-1.3439,55.7296-23.4751l16.656-42.6522c3.45-8.8345,9.6892-16.3574,17.8811-21.1369
	c32.4806-18.9504,79.8124-80.3338,97.9818-63.1927l20.5374,18.0641c8.9259,7.851,20.7327,11.4236,32.562,10.2491
	c11.0495-1.0971,27.1405,1.7529,53.0451,22.8808c3.1067,2.5338,5.84,5.5064,8.1099,8.8107l60.3183,87.8039
	c1.6718,2.4336,3.0835,5.0359,4.212,7.7642l11.5505,27.9247c4.4057,10.6512,12.7189,19.3888,23.4273,23.6535
	c7.9803,3.1782,16.5438,11.223,22.0278,17.0375c3.6473,3.8672,6.5128,8.3965,8.4729,13.3377l7.3417,18.5074
	c2.0257,5.1064,4.98,9.8044,8.7797,13.7719c16.6384,17.3734,32.1677,41.2517-15.738,41.2517H62.4198
	c-23.5576,0.0001-2.2821-16.912,15.471-28.4748C86.7938,310.5243,93.1348,301.5318,95.7033,291.222z"/>
<path style="fill:#2B1A0F;stroke:#412F22;stroke-width:7;stroke-miterlimit:10;" d="M109.8652,325.5675l58.3144-66.4918
	c1.1969-1.3647,2.6976-2.4292,4.3812-3.1076l43.2547-23.0872c2.1385-0.8618,33.8196-3.6201,36.0748-3.1409l61.3059,16.4517
	c2.4682,0.5245,14.3575,12.99,16.0098,14.8971l21.1757,24.4421c1.0669,1.2314,2.3814,2.2241,3.8579,2.9131l37.7764,17.63
	c1.3111,0.6118,2.7251,0.9728,4.169,1.0642l62.0133,7.5834c2.5784,0.1632,15.9603-3.5135,18.0934-4.9712l31.9537-21.8361
	c0.5023-0.3432,1.0308-0.6464,1.5807-0.9066L551,263c2.1646-1.0245,27.1425-2.4058,29.5015-1.9936
	C588.378,262.3826,598.66,264.22,601,265c2.7501,0.9167,62.9429,19.8552,75,22.2411c1.1264,0.2229,27.7041-5.6348,28.8464-5.7509
	l41.7767-4.2485c1.5681-0.1595,3.1522,0.0026,4.6555,0.4763l30.2116,9.5202c0.3396,0.107,0.684,0.1983,1.032,0.2737l36.9725,6.2395
	c1.2423,0.2688,27.5795,10.7046,28.6688,11.3596l24.9717,18.1662c1.8717,1.1255,3.3873,2.7571,4.3719,4.7065v0
	c22.4929,16.8139-1.7086,16.8139-10.3442,16.8139H118.5781C62.4198,344.7977,103.296,333.0579,109.8652,325.5675z"/>
<path style="fill:#371F13;stroke:#412C1D;stroke-width:7;stroke-miterlimit:10;" d="M746.6232,277.2417l-59.043-92.3934
	c-2.3331-6.4179-6.5364-11.9891-12.0674-15.9943l-35.085-25.4063c-9.0406-6.5467-20.7099-8.2626-31.2524-4.5956l-21.5701,7.5026
	c-5.0016,1.7397-10.3393,2.2925-15.5913,1.6149l0,0c-13.8913-1.7924-27.4689,5.078-34.2524,17.3321L518,201l-22.9117,36.9802
	c-3.6398,5.8747-8.976,10.507-15.3039,13.2852l-4.6643,2.0477c-4.0417,1.7744-7.7012,4.3155-10.7759,7.4826l-8.8222,9.0872
	c-2.0093,2.0697-3.7483,4.3856-5.1755,6.8924L432,309l41,3l36-24.6011l44.9332-19.7697c9.7607-4.2945,20.6812-5.1854,31.0089-2.5297
	l77.6806,19.975c7.509,1.9309,15.3284,2.3403,22.9979,1.2041L746.6232,277.2417z"/>
</svg>
