<?xml version="1.0" encoding="utf-8"?>
<!-- Generator: Adobe Illustrator 26.5.1, SVG Export Plug-In . SVG Version: 6.00 Build 0)  -->
<svg version="1.1" id="Layer_1" xmlns="http://www.w3.org/2000/svg" xmlns:xlink="http://www.w3.org/1999/xlink" x="0px" y="0px"
	 viewBox="0 0 653.535 382.4203" style="enable-background:new 0 0 653.535 382.4203;" xml:space="preserve">
<path style="fill:#3E2410;stroke:#5B3D28;stroke-width:7;stroke-miterlimit:10;" d="M13.4129,289.9503l43.4224-43.1989
	l30.9407-51.9532c0.2259-0.648,47.0522-55.6802,47.365-56.2951c17.6906-34.7805,19.6681-53.9496,60.2624-77.1126
	c19.2204-10.9672,31.6231-1.7533,47.7077,13.0498c11.6051,10.6805,28.5758-2.499,35.153,3.559
	c3.0342,2.7947,15.1024,9.8309,15.2947,13.8307l3.5373,19.387c15.0656,23.7269,40.3523,16.4492,42.6859,18.9816
	c21.3429,50.6698,64.0287,75.9262,81.6053,55.4152l16.5764-49.3502c26.8356-20.0196,24.954,1.5354,52.5743-42.3594
	c0.5191-4.3491,18.42-12.3115,29.7619-4.8345c4.9721,11.746,19.0042,14.3318,27.471,25.7064
	c27.6203,5.9317,31.627,81.5339,31.8131,83.1781l25.0496,74.9567c0.0304,0.1699-2.6476,38.1057-6.5965,42.8159H25.7744
	C17.9759,311.0164,9.7944,300.33,13.4129,289.9503z"/>
<path style="fill:#331B0A;stroke:#4A3122;stroke-width:7;stroke-miterlimit:10;" d="M132.0862,216.0031l25.2153-44.5797
	c5.0378-8.9066,16.8977-12.0754,26.1252-6.9803l33.8964,18.7164c2.9101,1.6068,5.3108,3.9218,6.9519,6.7037l14.702,24.9211
	c3.3273,5.64,9.6252,9.1359,16.4586,9.1359h80.1034c3.5908,0,7.1069,0.9695,10.1342,2.7944l62.6733,37.7801
	c3.5679,2.1508,7.7981,3.1039,12.0092,2.706l56.2723-5.3174l30.3018-7.1618c6.6356-0.7079,12.3791-4.6817,15.0974-10.4453
	l20.722-58.6622c6.3245-11.0989,32.4462,1.3495,36.835,12.3403c3.407,8.5322,3.0087,23.1518,3.34,24.7795l19.173,56.4894
	c0.2257,1.1087,13.2214-5.5231,22.5764,4.7341l18.3757,28.2106c3.802,9.7917-35.8885,5.3694-67.64,3.5591l-512.7626-0.0351
	c-64.3511,5.0351-52.9178-14.3025-49.2334-25.7415l24.7531-16.2347c0.744-2.3098,19.7376,8.1454,32.7367,1.8856l9.3134-30.3291
	c2.9647-3.3203,7.2168-15.7691,11.7652-16.4011l26.228-3.6447C124.1208,224.4047,129.2697,220.9826,132.0862,216.0031z"/>
</svg>
