<?xml version="1.0" encoding="utf-8"?>
<!-- Generator: Adobe Illustrator 26.5.1, SVG Export Plug-In . SVG Version: 6.00 Build 0)  -->
<svg version="1.1" id="Layer_1" xmlns="http://www.w3.org/2000/svg" xmlns:xlink="http://www.w3.org/1999/xlink" x="0px" y="0px"
	 viewBox="0 0 896 234.0206" style="enable-background:new 0 0 896 234.0206;" xml:space="preserve">
<path style="fill:#A7A9AC;stroke:#BCBEC0;stroke-width:6;stroke-miterlimit:10;" d="M466.78,114.9502
	c0,13.95-34.15,25.26-76.29,25.26c-21.22,0-40.41-2.87-54.24-7.5c-20.23,1.31-39.92,1.31-53.49,1.31c-7.26,0-15.33-0.95-23.68-2.72
	c-20.4,9.15-42.56,15.09-61.88,15.09c-17.47,0-41.44-2.43-66.29-6.65c-10.31,1.13-21.5,1.75-33.2,1.75
	c-51.2401,0-92.78-11.88-92.78-26.54c0-5.05,4.94-9.78,13.5-13.8c-6.66-7-6.93-14.38,2.19-21.77
	c47.7-38.69,103.25-28.81,160.65-26.27c15.8-21.84,64.24-27.85,97.88-27.85c37.78,0,126.18,33.32,138.72,66.1
	C446.48,95.0102,466.78,104.1902,466.78,114.9502z"/>
<path style="fill:#A7A9AC;stroke:#BCBEC0;stroke-width:6;stroke-miterlimit:10;" d="M863.6898,62.1459
	c3.93,3.44,26.8051-0.2902,26.8051,19.2974c0,17.65-108.2251,21.6534-162.8851,21.6534c-32.9,0-62.05-5.18-80.04-13.16
	c-11.97,1.96-26.2599,3.1-41.61,3.1c-35.53,0-65.4-6.11-73.88-14.39c-6.08,0.48-12.45,0.73-19.02,0.73
	c-42.19,0-76.4-10.5-76.4-23.45s34.21-23.45,76.4-23.45c13.23,0,25.68,1.03,36.53,2.85c7.99-11.27,50.49-19.86,101.73-19.86
	c26.2401,0,50.1801,2.25,68.38,5.97c12.28-9.64,15.0119-16.28,45.0219-16.28c41.85,0,75.77,12.92,75.77,28.86
	C840.4917,45.5167,875.0309,44.3299,863.6898,62.1459z"/>
<path style="fill:#A7A9AC;stroke:#BCBEC0;stroke-width:6;stroke-miterlimit:10;" d="M794.6185,194.8481
	c0,13.1-41.54,23.71-92.78,23.71c-33.85,0-102.6454-0.51-118.8454-7.43c-12.68,10.42-42.62,17.74-77.55,17.74
	c-39.7401,0-73.04-9.48-81.77-22.21c-14.74,7.06-37.88,11.61-63.9,11.61c-44.52,0-142.47-11.12-142.47-27.55
	c0-16.4,97.82-31.9,142.23-31.95c-3.29-4.08-5.12-8.62-5.12-13.4c0-17.65,24.93-31.96,55.67-31.96c26.5,0,48.67,10.63,54.28,24.86
	c18.04-3.24,44.54-5.28,74.07-5.28c54.37,0,73.0113,1.6391,80.0598,6.461c10.1462,6.9411,14.7402,13.779,8.2502,15.839
	c27.93,5.34,87.4654,8.25,87.4654,15.85c0,0.07,0,0.14-0.01,0.21C759.5985,172.8881,794.6185,182.8281,794.6185,194.8481z"/>
</svg>
